<svg width="221" height="77" viewBox="0 0 221 77" fill="none" xmlns="http://www.w3.org/2000/svg">
<ellipse cx="41.2213" cy="38.1845" rx="41.2213" ry="38.1845" fill="white"/>
<path d="M33.2242 17.2615V38.583" stroke="#0052B4" stroke-width="4.86444" stroke-linecap="round"/>
<path d="M25.9104 21.4461V38.583" stroke="#0052B4" stroke-width="4.86444" stroke-linecap="round"/>
<path d="M18.5966 25.2321V38.583" stroke="#0052B4" stroke-width="4.86444" stroke-linecap="round"/>
<path d="M63.3402 30.8116L40.323 30.8116" stroke="#0052B4" stroke-width="4.86444" stroke-linecap="round"/>
<path d="M58.8229 24.0365L40.323 24.0365" stroke="#0052B4" stroke-width="4.86444" stroke-linecap="round"/>
<path d="M54.7357 17.2615L40.3231 17.2615" stroke="#0052B4" stroke-width="4.86444" stroke-linecap="round"/>
<path d="M48.7124 58.2108L48.7124 36.8892" stroke="#0052B4" stroke-width="4.86444" stroke-linecap="round"/>
<path d="M56.0264 54.0262L56.0264 36.8892" stroke="#0052B4" stroke-width="4.86444" stroke-linecap="round"/>
<path d="M63.3402 50.2401L63.3402 36.8892" stroke="#0052B4" stroke-width="4.86444" stroke-linecap="round"/>
<path d="M18.5966 45.5573L41.6138 45.5573" stroke="#0052B4" stroke-width="4.86444" stroke-linecap="round"/>
<path d="M23.1139 52.3324L41.6137 52.3324" stroke="#0052B4" stroke-width="4.86444" stroke-linecap="round"/>
<path d="M27.201 59.1075L41.6137 59.1075" stroke="#0052B4" stroke-width="4.86444" stroke-linecap="round"/>
<path d="M105.991 33.3683V35.6417H102.249V47.4113H99.4326V35.6417H95.6904V33.3683H105.991ZM110.863 37.9957C111.225 37.4055 111.695 36.9428 112.271 36.6075C112.862 36.2721 113.532 36.1045 114.283 36.1045V39.062H113.539C112.654 39.062 111.983 39.2699 111.527 39.6857C111.084 40.1015 110.863 40.8257 110.863 41.8585V47.4113H108.046V36.2654H110.863V37.9957ZM126.542 41.597C126.542 41.9993 126.515 42.3615 126.461 42.6834H118.313C118.38 43.4881 118.662 44.1185 119.158 44.5746C119.654 45.0306 120.265 45.2586 120.989 45.2586C122.035 45.2586 122.78 44.8093 123.222 43.9106H126.26C125.938 44.9837 125.321 45.8689 124.409 46.5663C123.497 47.2504 122.377 47.5924 121.049 47.5924C119.976 47.5924 119.011 47.3577 118.152 46.8883C117.307 46.4054 116.643 45.7281 116.16 44.8562C115.691 43.9844 115.456 42.9785 115.456 41.8384C115.456 40.6849 115.691 39.6722 116.16 38.8004C116.63 37.9286 117.287 37.258 118.132 36.7885C118.977 36.3191 119.949 36.0844 121.049 36.0844C122.109 36.0844 123.054 36.3124 123.886 36.7684C124.731 37.2244 125.382 37.875 125.838 38.7199C126.307 39.5515 126.542 40.5105 126.542 41.597ZM123.625 40.7922C123.611 40.0679 123.35 39.4912 122.84 39.062C122.33 38.6194 121.707 38.398 120.969 38.398C120.271 38.398 119.681 38.6126 119.198 39.0419C118.729 39.4576 118.441 40.0411 118.333 40.7922H123.625ZM134.774 36.1045C136.102 36.1045 137.175 36.527 137.993 37.372C138.811 38.2036 139.221 39.3705 139.221 40.8727V47.4113H136.404V41.2549C136.404 40.3697 136.183 39.6924 135.74 39.2229C135.297 38.7401 134.694 38.4986 133.929 38.4986C133.151 38.4986 132.534 38.7401 132.078 39.2229C131.636 39.6924 131.414 40.3697 131.414 41.2549V47.4113H128.598V36.2654H131.414V37.6536C131.79 37.1708 132.266 36.7952 132.843 36.527C133.433 36.2453 134.077 36.1045 134.774 36.1045ZM141.175 41.7982C141.175 40.6715 141.396 39.6722 141.839 38.8004C142.295 37.9286 142.912 37.258 143.69 36.7885C144.468 36.3191 145.333 36.0844 146.285 36.0844C147.009 36.0844 147.7 36.2453 148.357 36.5672C149.014 36.8757 149.538 37.2915 149.926 37.8146V32.5233H152.783V47.4113H149.926V45.7616C149.578 46.3115 149.088 46.7541 148.458 47.0894C147.827 47.4248 147.096 47.5924 146.265 47.5924C145.326 47.5924 144.468 47.351 143.69 46.8681C142.912 46.3853 142.295 45.7079 141.839 44.8361C141.396 43.9509 141.175 42.9382 141.175 41.7982ZM149.947 41.8384C149.947 41.1543 149.812 40.5709 149.544 40.088C149.276 39.5918 148.914 39.2162 148.458 38.9614C148.002 38.6931 147.512 38.559 146.989 38.559C146.466 38.559 145.983 38.6864 145.541 38.9413C145.098 39.1961 144.736 39.5717 144.454 40.0679C144.186 40.5508 144.052 41.1275 144.052 41.7982C144.052 42.4688 144.186 43.0589 144.454 43.5686C144.736 44.0649 145.098 44.4472 145.541 44.7154C145.997 44.9837 146.479 45.1178 146.989 45.1178C147.512 45.1178 148.002 44.9904 148.458 44.7355C148.914 44.4673 149.276 44.0917 149.544 43.6089C149.812 43.1126 149.947 42.5224 149.947 41.8384ZM169.376 36.1045C170.744 36.1045 171.844 36.527 172.676 37.372C173.521 38.2036 173.943 39.3705 173.943 40.8727V47.4113H171.127V41.2549C171.127 40.3831 170.905 39.7192 170.463 39.2632C170.02 38.7937 169.416 38.559 168.652 38.559C167.887 38.559 167.277 38.7937 166.821 39.2632C166.378 39.7192 166.157 40.3831 166.157 41.2549V47.4113H163.34V41.2549C163.34 40.3831 163.119 39.7192 162.677 39.2632C162.234 38.7937 161.63 38.559 160.866 38.559C160.088 38.559 159.471 38.7937 159.015 39.2632C158.572 39.7192 158.351 40.3831 158.351 41.2549V47.4113H155.534V36.2654H158.351V37.6134C158.713 37.144 159.176 36.7751 159.739 36.5069C160.316 36.2386 160.946 36.1045 161.63 36.1045C162.502 36.1045 163.28 36.2923 163.964 36.6678C164.648 37.03 165.178 37.553 165.554 38.2371C165.916 37.5933 166.439 37.0769 167.123 36.6879C167.82 36.299 168.571 36.1045 169.376 36.1045ZM175.892 41.7982C175.892 40.6715 176.113 39.6722 176.556 38.8004C177.012 37.9286 177.622 37.258 178.386 36.7885C179.164 36.3191 180.03 36.0844 180.982 36.0844C181.813 36.0844 182.538 36.252 183.155 36.5873C183.785 36.9227 184.288 37.3452 184.664 37.8548V36.2654H187.5V47.4113H184.664V45.7817C184.301 46.3048 183.798 46.7407 183.155 47.0894C182.524 47.4248 181.793 47.5924 180.962 47.5924C180.023 47.5924 179.164 47.351 178.386 46.8681C177.622 46.3853 177.012 45.7079 176.556 44.8361C176.113 43.9509 175.892 42.9382 175.892 41.7982ZM184.664 41.8384C184.664 41.1543 184.529 40.5709 184.261 40.088C183.993 39.5918 183.631 39.2162 183.175 38.9614C182.719 38.6931 182.229 38.559 181.706 38.559C181.183 38.559 180.7 38.6864 180.258 38.9413C179.815 39.1961 179.453 39.5717 179.171 40.0679C178.903 40.5508 178.769 41.1275 178.769 41.7982C178.769 42.4688 178.903 43.0589 179.171 43.5686C179.453 44.0649 179.815 44.4472 180.258 44.7154C180.714 44.9837 181.196 45.1178 181.706 45.1178C182.229 45.1178 182.719 44.9904 183.175 44.7355C183.631 44.4673 183.993 44.0917 184.261 43.6089C184.529 43.1126 184.664 42.5224 184.664 41.8384ZM196.85 47.4113L193.068 42.6633V47.4113H190.251V32.5233H193.068V40.9934L196.81 36.2654H200.472L195.563 41.8585L200.512 47.4113H196.85ZM212.362 41.597C212.362 41.9993 212.335 42.3615 212.281 42.6834H204.133C204.2 43.4881 204.482 44.1185 204.978 44.5746C205.474 45.0306 206.085 45.2586 206.809 45.2586C207.855 45.2586 208.6 44.8093 209.042 43.9106H212.08C211.758 44.9837 211.141 45.8689 210.229 46.5663C209.317 47.2504 208.197 47.5924 206.869 47.5924C205.796 47.5924 204.831 47.3577 203.972 46.8883C203.127 46.4054 202.463 45.7281 201.98 44.8562C201.511 43.9844 201.276 42.9785 201.276 41.8384C201.276 40.6849 201.511 39.6722 201.98 38.8004C202.45 37.9286 203.107 37.258 203.952 36.7885C204.797 36.3191 205.769 36.0844 206.869 36.0844C207.929 36.0844 208.874 36.3124 209.706 36.7684C210.551 37.2244 211.202 37.875 211.658 38.7199C212.127 39.5515 212.362 40.5105 212.362 41.597ZM209.445 40.7922C209.431 40.0679 209.17 39.4912 208.66 39.062C208.15 38.6194 207.527 38.398 206.789 38.398C206.091 38.398 205.501 38.6126 205.018 39.0419C204.549 39.4576 204.261 40.0411 204.153 40.7922H209.445ZM217.234 37.9957C217.596 37.4055 218.066 36.9428 218.643 36.6075C219.233 36.2721 219.903 36.1045 220.655 36.1045V39.062H219.91C219.025 39.062 218.354 39.2699 217.898 39.6857C217.456 40.1015 217.234 40.8257 217.234 41.8585V47.4113H214.418V36.2654H217.234V37.9957Z" fill="white"/>
</svg>
